<svg xmlns="http://www.w3.org/2000/svg" width="32" height="32" viewBox="0 0 32 32" fill="none">
  <path
    d="M6 3h14l6 6v18a2 2 0 0 1-2 2H6a2 2 0 0 1-2-2V5a2 2 0 0 1 2-2Z"
    fill="#0f766e"
  />
  <path d="M20 3v5a1 1 0 0 0 1 1h5L20 3Z" fill="#134e4a" />
  <path d="M20 3l6 6h-5a1 1 0 0 1-1-1V3Z" fill="#14b8a6" />
  <text
    x="16"
    y="18"
    text-anchor="middle"
    font-family="Georgia, 'Times New Roman', serif"
    font-size="8"
    font-weight="700"
    fill="#fff"
  >AI</text>
  <rect x="9" y="21" width="14" height="1.5" rx="0.75" fill="#fff" opacity="0.95" />
  <rect x="9" y="24.5" width="10" height="1.5" rx="0.75" fill="#fff" opacity="0.7" />
  <rect x="9" y="28" width="7" height="1.5" rx="0.75" fill="#fff" opacity="0.5" />
</svg>
